# xmcd
#
# Track frame offsets:
#	183
#	15158
#	27263
#	39043
#	52958
#	82760
#	95103
#	112280
#	125593
#	142315
#	159563
#	173033
#	196258
#	207788
#	225848
#
# Disc length: 3252 seconds
#
# Revision: 2
# Processed by: cddbd v1.5.1PL0 Copyright (c) Steve Scherf et al.
# Submitted via: dBpowerAMP V4.0
#
DISCID=b80cb20f
DTITLE=Various Artist - Blues Legends
DYEAR=1900
DGENRE=Blues
TTITLE0=Louisiana Red - Alabama Train
TTITLE1=Ike Turner - Prancin
TTITLE2=Buddy Guy - Try to Quit You Baby
TTITLE3=Lightnin' Hopkins - War is Starting Again
TTITLE4=Luther Alison - You Upset me Baby
TTITLE5=John Lee Hooker - House Rent Boogie
TTITLE6=Matt Murphy - Taking Off
TTITLE7=Mississippi Fred Mcdowell - I Asked For Whisky, She Brought me Gasoline
TTITLE8=Albert Collins - The Things I Used to Do
TTITLE9=Jimmy Reed - Cry Before I Go
TTITLE10=Sonny Boy Williamson - Your Funeral And my Trail
TTITLE11=Bo Diddley - Mona
TTITLE12=Screamin' Jay Hawkins - The Whammy
TTITLE13=Muddy Waters - Honey Bee
TTITLE14=Roy Gaines and The Crusaders - Hell of a Night
EXTD=
EXTT0=
EXTT1=
EXTT2=
EXTT3=
EXTT4=
EXTT5=
EXTT6=
EXTT7=
EXTT8=
EXTT9=
EXTT10=
EXTT11=
EXTT12=
EXTT13=
EXTT14=
PLAYORDER=
